# xmcd
#
# Track frame offsets: 
#        150
#        34359
#        60947
#        92367
#        121231
#        158001
#        190047
#        223241
#        249994
#        289136
#
# Disc length: 4184 seconds
#
# Revision: 0
# Processed by: cddbd v1.5.2PL0 Copyright (c) Steve Scherf et al.
# Submitted via: ExactAudioCopy v0.99pb5
#
DISCID=8210560a
DTITLE=Various Artist - Purple Music Inc. - The Master Collection 5 [CD 1)
DYEAR=2008
DGENRE=House
TTITLE0=Jamie Lewis - Unity (Darkroom Mix)
TTITLE1=Anthony Romeno - I Won't Let You Go (Sax Club Mix)
TTITLE2=Jonathan Meyer Feat. June Grey - Sunday Light (Original Mix)
TTITLE3=Djaimin Feat. Crystal Re-Clear and Buddha Monk - Change (Jamie L
TTITLE3=ewis Moody Mix)
TTITLE4=Yass Feat. LT Brown - I'm Free (Main Mix)
TTITLE5=Alfred Azzetto Feat. Geneive Allen - Colors (Are Forever) (Luc
TTITLE5=a Cassani Green Dub)
TTITLE6=Panevino - Freeze The Frame (Original Mix)
TTITLE7=H2O - Living For The Future (Panthera Dub)
TTITLE8=Medusa Feat. Leslie Carter - Medusa (Kemal's Main Mix)
TTITLE9=Cerrone - Music Of Life (Jamie Lewis Remix)
EXTD=
EXTT0=
EXTT1=
EXTT2=
EXTT3=
EXTT4=
EXTT5=
EXTT6=
EXTT7=
EXTT8=
EXTT9=
PLAYORDER=
